<svg xmlns="http://www.w3.org/2000/svg" fill-rule="evenodd" stroke-linejoin="round" stroke-miterlimit="2" clip-rule="evenodd" viewBox="0 0 164 49">
  <path fill-rule="nonzero" fill="#fff" d="M9.35 12.1c2.55 0 4.5 1.1 5.85 3.4 1.4 2.25 2.05 5.3 2.05 9.2q0 4.2-1.05 7.2c-1.05 3-1.7 3.5-2.95 4.5q-1.875 1.5-4.35 1.5c-1.45 0-2.7-.4-3.7-1.1-1-.75-1.6-1.95-1.85-3.65h-.2l-.8 4.4H0V.05h3.7v11l-.3 5.55h.1c.45-1.6 1.2-2.75 2.2-3.45s2.2-1.05 3.7-1.05zM8.5 34.6c1.6 0 2.85-.8 3.75-2.45s1.35-4.1 1.35-7.4c0-3.15-.4-5.5-1.25-7.05s-2.1-2.3-3.7-2.3c-2.55 0-4.2 1.55-4.95 4.6v9c.75 3.75 2.35 5.6 4.8 5.6m34.4-22.1-6.85 24.7c-.85 3.15-1.7 5.5-2.4 7.1-.75 1.6-1.6 2.65-2.5 3.25s-2.05.85-3.5.85c-.85 0-1.6-.05-2.15-.15s-1.15-.25-1.8-.4l-.05-3.35q1.8.6 3.45.6c.85 0 1.6-.25 2.1-.65q.825-.675 1.5-2.25c.675-1.575.95-2.6 1.5-4.65h-2.15l-5.75-21.9h-3.35v-3.1h6.25l5.6 21.3h.4l5.9-21.3h3.75zm16.4 17.75h-6.7l-1.15 7.25h-7.5l5.75-33h12.5l5.75 33h-7.5zm-.95-5.8-2-12.8h-.8l-2 12.8zM74.9 4.5l.4 17-.7 7.65h.5L78.2 17h3.5l3.1 12.15h.5l-.7-7.65.4-17h6.95l-2 33h-7.5l-2.3-8.85h-.4l-2.3 8.85h-7.5l-2-33zm26.5 19.75h-1.25V37.5h-7.2v-33h7.2v13.25h1.65l5.85-13.25h7.8l-7.65 16.65 8.15 16.35h-8.05zM138.95 31v6.5h-21.5v-33h20.8V11h-13.6v6.55h12.9v5.9h-12.9V31zm2-26.5h10.6c4 0 7 1.35 8.95 4.1s2.95 6.85 2.95 12.3c0 5.8-.95 10-2.85 12.65s-4.8 3.95-8.7 3.95h-10.95zM151.8 31c1.55 0 2.65-.8 3.35-2.4s1.1-4.15 1.1-7.7q0-9.9-4.8-9.9h-3.3v20z"/>
</svg>
