<svg xmlns="http://www.w3.org/2000/svg" width="168px" height="49px" viewBox="0 0 168 49">
  <path fill-rule="nonzero" filter="url(#glitch)" style="image-rendering:pixelated;" fill="#fff" d="M9.35 12.1c2.55 0 4.5 1.1 5.85 3.4 1.4 2.25 2.05 5.3 2.05 9.2q0 4.2-1.05 7.2c-1.05 3-1.7 3.5-2.95 4.5q-1.875 1.5-4.35 1.5c-1.45 0-2.7-.4-3.7-1.1-1-.75-1.6-1.95-1.85-3.65h-.2l-.8 4.4H0V.05h3.7v11l-.3 5.55h.1c.45-1.6 1.2-2.75 2.2-3.45s2.2-1.05 3.7-1.05zM8.5 34.6c1.6 0 2.85-.8 3.75-2.45s1.35-4.1 1.35-7.4c0-3.15-.4-5.5-1.25-7.05s-2.1-2.3-3.7-2.3c-2.55 0-4.2 1.55-4.95 4.6v9c.75 3.75 2.35 5.6 4.8 5.6m34.4-22.1-6.85 24.7c-.85 3.15-1.7 5.5-2.4 7.1-.75 1.6-1.6 2.65-2.5 3.25s-2.05.85-3.5.85c-.85 0-1.6-.05-2.15-.15s-1.15-.25-1.8-.4l-.05-3.35q1.8.6 3.45.6c.85 0 1.6-.25 2.1-.65q.825-.675 1.5-2.25c.675-1.575.95-2.6 1.5-4.65h-2.15l-5.75-21.9h-3.35v-3.1h6.25l5.6 21.3h.4l5.9-21.3h3.75zm16.4 17.75h-6.7l-1.15 7.25h-7.5l5.75-33h12.5l5.75 33h-7.5zm-.95-5.8-2-12.8h-.8l-2 12.8zM74.9 4.5l.4 17-.7 7.65h.5L78.2 17h3.5l3.1 12.15h.5l-.7-7.65.4-17h6.95l-2 33h-7.5l-2.3-8.85h-.4l-2.3 8.85h-7.5l-2-33zm26.5 19.75h-1.25V37.5h-7.2v-33h7.2v13.25h1.65l5.85-13.25h7.8l-7.65 16.65 8.15 16.35h-8.05zM138.95 31v6.5h-21.5v-33h20.8V11h-13.6v6.55h12.9v5.9h-12.9V31zm2-26.5h10.6c4 0 7 1.35 8.95 4.1s2.95 6.85 2.95 12.3c0 5.8-.95 10-2.85 12.65s-4.8 3.95-8.7 3.95h-10.95zM151.8 31c1.55 0 2.65-.8 3.35-2.4s1.1-4.15 1.1-7.7q0-9.9-4.8-9.9h-3.3v20z"/>
  <defs>
    <filter id="glitch" primitiveUnits="objectBoundingBox" x="-10%" y="0%" width="120%" height="100%">
      <feColorMatrix in="SourceGraphic" result="red" type="matrix" values="1 0 0 0 0 0 0 0 0 0 0 0 0 0 0 0 0 0 1 0"/> 
      <feColorMatrix in="SourceGraphic" result="green" type="matrix" values="0 0 0 0 0 0 1 0 0 0 0 0 0 0 0 0 0 0 1 0"/> 
      <feColorMatrix in="SourceGraphic" result="blue" type="matrix" values="0 0 0 0 0 0 0 0 0 0 0 0 1 0 0 0 0 0 1 0"/> 
      <feOffset in="red" result="red-shifted" dx="-0.01" dy="0">
        <animate attributeName="dx" keyTimes="0;0.0999;0.2043;0.5563;0.6127;0.7580;0.9803;1" values="0.0165;0.0092;0.0106;0.0134;0.0054;0.0039;0.0178;0.0073" begin="0" dur="5s" calcMode="discrete" repeatCount="indefinite" fill="freeze"/>
        <animate attributeName="dy" keyTimes="0;0.0999;0.2043;0.5563;0.6127;0.7580;0.9803;1" values="0.0165;0.0092;0.0106;0.0134;0.0054;0.0039;0.0178;0.0073" begin="0" dur="5s" calcMode="discrete" repeatCount="indefinite" fill="freeze"/>
      </feOffset>
      <feOffset in="blue" result="blue-shifted" dx="0.01" dy="0">
        <animate attributeName="dx" keyTimes="0;0.1631;0.7015;0.7644;0.8114;0.8708;0.9919;1" values="0.0189;0.0153;0.0169;0.0045;0.0074;0.0167;0.0122;0.0103" begin="0" dur="5.5s" calcMode="discrete" repeatCount="indefinite" fill="freeze"/>
        <animate attributeName="dy" keyTimes="0;0.1631;0.7015;0.7644;0.8114;0.8708;0.9919;1" values="0.0189;0.0153;0.0169;0.0045;0.0074;0.0167;0.0122;0.0103" begin="0" dur="5.5s" calcMode="discrete" repeatCount="indefinite" fill="freeze"/>
      </feOffset>
       <feBlend mode="screen" in="red-shifted" in2="green" result="red-green"/>
       <feBlend mode="screen" in="red-green" in2="blue-shifted" result="blended"/>
       <feOffset in="blended" dx="0" dy="0" y="0%" height="16%" result="slice_0">
         <animate attributeName="dx" keyTimes="0;0.1550;0.2038;0.4666;0.5715;0.6797;0.8730;1" values="0.0012;0.0099;0.0105;0.0076;0.0025;0.0101;0.0067;0.0046" begin="0s" dur="6.8921s" calcMode="discrete" repeatCount="indefinite" fill="freeze"/>
         <animate attributeName="dy" keyTimes="0;0.1550;0.2038;0.4666;0.5715;0.6797;0.8730;1" values="0.0012;0.0099;0.0105;0.0076;0.0025;0.0101;0.0067;0.0046" begin="0s" dur="6.8921s" calcMode="discrete" repeatCount="indefinite" fill="freeze"/>
       </feOffset>
       <feOffset in="blended" dx="0" dy="0" y="16%" height="7%" result="slice_1">
         <animate attributeName="dx" keyTimes="0;0.1433;0.1774;0.2395;0.4139;0.5317;0.6690;1" values="0.0075;0.0078;0.0039;0.0117;0.0058;0.0072;0.0108;0.0034" begin="0s" dur="4.9653s" calcMode="discrete" repeatCount="indefinite" fill="freeze"/>
         <animate attributeName="dy" keyTimes="0;0.1433;0.1774;0.2395;0.4139;0.5317;0.6690;1" values="0.0075;0.0078;0.0039;0.0117;0.0058;0.0072;0.0108;0.0034" begin="0s" dur="4.9653s" calcMode="discrete" repeatCount="indefinite" fill="freeze"/>
       </feOffset>
       <feOffset in="blended" dx="0" dy="0" y="23%" height="18%" result="slice_2">
         <animate attributeName="dx" keyTimes="0;0.1519;0.4626;0.5102;0.7123;0.7356;0.9223;1" values="0.0093;0.0129;0.0056;0.0082;0.0123;0.0105;0.0028;0.0063" begin="0s" dur="5.877s" calcMode="discrete" repeatCount="indefinite" fill="freeze"/>
         <animate attributeName="dy" keyTimes="0;0.1519;0.4626;0.5102;0.7123;0.7356;0.9223;1" values="0.0093;0.0129;0.0056;0.0082;0.0123;0.0105;0.0028;0.0063" begin="0s" dur="5.877s" calcMode="discrete" repeatCount="indefinite" fill="freeze"/>
       </feOffset>
       <feOffset in="blended" dx="0" dy="0" y="41%" height="13%" result="slice_3">
         <animate attributeName="dx" keyTimes="0;0.1591;0.2825;0.4121;0.6672;0.8275;0.9888;1" values="0.0052;0.0104;0.0038;0.0122;0.0098;0.0020;0.0111;0.0106" begin="0s" dur="6.843s" calcMode="discrete" repeatCount="indefinite" fill="freeze"/>
         <animate attributeName="dy" keyTimes="0;0.1591;0.2825;0.4121;0.6672;0.8275;0.9888;1" values="0.0052;0.0104;0.0038;0.0122;0.0098;0.0020;0.0111;0.0106" begin="0s" dur="6.843s" calcMode="discrete" repeatCount="indefinite" fill="freeze"/>
       </feOffset>
       <feOffset in="blended" dx="0" dy="0" y="54%" height="10%" result="slice_4">
         <animate attributeName="dx" keyTimes="0;0.1408;0.1795;0.2297;0.2458;0.4762;0.8978;1" values="0.0057;0.0049;0.0105;0.0084;0.0095;0.0087;0.0129;0.0069" begin="0s" dur="6.6725s" calcMode="discrete" repeatCount="indefinite" fill="freeze"/>
         <animate attributeName="dy" keyTimes="0;0.1408;0.1795;0.2297;0.2458;0.4762;0.8978;1" values="0.0057;0.0049;0.0105;0.0084;0.0095;0.0087;0.0129;0.0069" begin="0s" dur="6.6725s" calcMode="discrete" repeatCount="indefinite" fill="freeze"/>
       </feOffset>
       <feOffset in="blended" dx="0" dy="0" y="64%" height="7%" result="slice_5">
         <animate attributeName="dx" keyTimes="0;0.1794;0.2254;0.4879;0.5804;0.7356;0.8343;1" values="0.0120;0.0015;0.0068;0.0044;0.0038;0.0027;0.0107;0.0072" begin="0s" dur="4.9993s" calcMode="discrete" repeatCount="indefinite" fill="freeze"/>
         <animate attributeName="dy" keyTimes="0;0.1794;0.2254;0.4879;0.5804;0.7356;0.8343;1" values="0.0120;0.0015;0.0068;0.0044;0.0038;0.0027;0.0107;0.0072" begin="0s" dur="4.9993s" calcMode="discrete" repeatCount="indefinite" fill="freeze"/>
       </feOffset>
       <feOffset in="blended" dx="0" dy="0" y="71%" height="18%" result="slice_6">
         <animate attributeName="dx" keyTimes="0;0.4174;0.5321;0.7214;0.7443;0.9036;0.9499;1" values="0.0107;0.0095;0.0026;0.0062;0.0085;0.0100;0.0032;0.0112" begin="0s" dur="6.6994s" calcMode="discrete" repeatCount="indefinite" fill="freeze"/>
         <animate attributeName="dy" keyTimes="0;0.4174;0.5321;0.7214;0.7443;0.9036;0.9499;1" values="0.0107;0.0095;0.0026;0.0062;0.0085;0.0100;0.0032;0.0112" begin="0s" dur="6.6994s" calcMode="discrete" repeatCount="indefinite" fill="freeze"/>
       </feOffset>
       <feOffset in="blended" dx="0" dy="0" y="89%" height="11%" result="slice_7">
         <animate attributeName="dx" keyTimes="0;0.2133;0.2641;0.2705;0.3972;0.4697;0.4744;1" values="0.0031;0.0036;0.0090;0.0072;0.0032;0.0103;0.0017;0.0025" begin="0s" dur="6.5007s" calcMode="discrete" repeatCount="indefinite" fill="freeze"/>
         <animate attributeName="dy" keyTimes="0;0.2133;0.2641;0.2705;0.3972;0.4697;0.4744;1" values="0.0031;0.0036;0.0090;0.0072;0.0032;0.0103;0.0017;0.0025" begin="0s" dur="6.5007s" calcMode="discrete" repeatCount="indefinite" fill="freeze"/>
       </feOffset>
      <feMerge>
        <feMergeNode in="slice_0"/><feMergeNode in="slice_1"/><feMergeNode in="slice_2"/><feMergeNode in="slice_3"/><feMergeNode in="slice_4"/><feMergeNode in="slice_5"/><feMergeNode in="slice_6"/><feMergeNode in="slice_7"/>
      </feMerge>
    </filter>
  </defs>
</svg>